<svg xmlns="http://www.w3.org/2000/svg" width="113" height="33" fill="none"><path fill="url(#a)" stroke="url(#b)" d="M.5 10.5A9.5 9.5 0 0 1 10 1h12a9.5 9.5 0 0 1 9.5 9.5v12A9.5 9.5 0 0 1 22 32H10a9.5 9.5 0 0 1-9.5-9.5v-12Z"/><g filter="url(#c)"><path fill="#FFF9F5" d="M13.593 7.193a7.04 7.04 0 0 1-7.04 7.04v4.692h7.04v7.039h4.693a7.04 7.04 0 0 1 7.039-7.04v-4.692h-7.04v-7.04h-4.692Z"/><path stroke="#FEB455" stroke-width=".73" d="M13.958 18.925v-.365H6.919v-3.972a7.405 7.405 0 0 0 7.03-7.03h3.972v7.039h7.039v3.972a7.405 7.405 0 0 0-7.03 7.03h-3.972v-6.674Z"/></g><path fill="url(#d)" d="M54.742 25 53.5 21.458h-6.417L45.818 25h-3.519l6.21-16.514h3.818L58.491 25h-3.749Zm-4.416-12.696-2.254 6.371h4.462l-2.208-6.371Zm14.38 12.926c-3.543 0-5.98-2.622-5.98-6.371 0-3.68 2.53-6.371 5.98-6.371 3.197 0 5.566 2.162 5.956 5.474h-3.358c-.16-1.633-1.15-2.645-2.599-2.645-1.655 0-2.713 1.357-2.713 3.542 0 2.208 1.035 3.542 2.714 3.542 1.471 0 2.415-.966 2.599-2.645h3.357c-.368 3.381-2.668 5.474-5.957 5.474Zm15.645-3.335v2.783c-.782.391-1.518.552-2.46.552-2.53 0-4.118-1.449-4.118-4.209v-5.566H71.29v-2.737h2.484V9.084h3.174v3.634h3.52v2.737h-3.52v4.83c0 1.426.644 2.001 1.794 2.001.598 0 1.15-.138 1.61-.391Zm5.77-12.029c0 1.081-.874 1.886-2.139 1.886-1.242 0-2.116-.805-2.116-1.886 0-1.127.874-1.932 2.116-1.932 1.265 0 2.14.805 2.14 1.932ZM85.615 25h-3.197V12.718h3.197V25Zm13.908-12.282L95.015 25H91.52l-4.53-12.282h3.45l2.92 8.648 2.944-8.648h3.22Zm6.312 12.489c-3.68 0-6.14-2.553-6.14-6.394 0-3.657 2.552-6.325 6.094-6.325 3.887 0 6.463 3.151 5.888 7.153h-8.717c.207 2.001 1.173 3.105 2.806 3.105 1.403 0 2.346-.69 2.714-1.909h3.174c-.69 2.783-2.829 4.37-5.819 4.37Zm-.115-10.373c-1.495 0-2.438.966-2.714 2.783h5.29c-.092-1.702-1.058-2.783-2.576-2.783Z"/><defs><linearGradient id="b" x1="29.5" x2="1" y1="1.5" y2="31" gradientUnits="userSpaceOnUse"><stop stop-color="#FEB455"/><stop offset="1" stop-color="#ED5F26"/></linearGradient><linearGradient id="d" x1="50.051" x2="102.376" y1="25.219" y2="20.207" gradientUnits="userSpaceOnUse"><stop offset=".746" stop-color="#111"/><stop offset="1" stop-color="#37312F"/></linearGradient><radialGradient id="a" cx="0" cy="0" r="1" gradientTransform="matrix(-27.50002 27.50002 -20.7591 -20.7591 29 3)" gradientUnits="userSpaceOnUse"><stop stop-color="#FF9937"/><stop offset=".895" stop-color="#FE6A2E"/></radialGradient><filter id="c" width="21.011" height="21.011" x="5.434" y="7.193" color-interpolation-filters="sRGB" filterUnits="userSpaceOnUse"><feFlood flood-opacity="0" result="BackgroundImageFix"/><feColorMatrix in="SourceAlpha" result="hardAlpha" values="0 0 0 0 0 0 0 0 0 0 0 0 0 0 0 0 0 0 127 0"/><feOffset dy="1.12"/><feGaussianBlur stdDeviation=".56"/><feComposite in2="hardAlpha" operator="out"/><feColorMatrix values="0 0 0 0 0.929412 0 0 0 0 0.372549 0 0 0 0 0.14902 0 0 0 1 0"/><feBlend in2="BackgroundImageFix" result="effect1_dropShadow_157_1726"/><feBlend in="SourceGraphic" in2="effect1_dropShadow_157_1726" result="shape"/></filter></defs></svg>