<svg xmlns="http://www.w3.org/2000/svg" width="26" height="26" fill="none"><path fill="url(#a)" d="M16.532 23.832a.679.679 0 0 1-.206-.032 12.135 12.135 0 0 0-6.64 0 .756.756 0 0 1-.932-.52.747.747 0 0 1 .52-.932 13.692 13.692 0 0 1 7.475 0c.4.12.639.531.52.932a.784.784 0 0 1-.737.552Z"/><path fill="url(#b)" d="M20.811 6.889c-1.127-2.275-3.304-3.955-5.828-4.507-2.644-.585-5.352.043-7.421 1.712A8.637 8.637 0 0 0 4.3 10.886c0 2.806 1.68 5.742 4.214 7.443v.899c-.01.303-.021.769.347 1.148.379.39.942.433 1.386.433h5.558c.585 0 1.03-.162 1.333-.465.411-.423.4-.965.39-1.257v-.758c3.358-2.265 5.47-7.042 3.282-11.44Zm-5.947 5.698-1.16 2.015a.819.819 0 0 1-.704.412.817.817 0 0 1-.704-1.213l.92-1.604h-.91c-.54 0-.985-.238-1.223-.64-.239-.41-.217-.91.054-1.386l1.159-2.015a.817.817 0 0 1 1.105-.303c.39.227.52.726.303 1.105l-.92 1.603h.91c.541 0 .985.239 1.224.64.238.411.216.92-.054 1.386Z"/><defs><radialGradient id="a" cx="0" cy="0" r="1" gradientTransform="matrix(-7.37044 1.72234 -.57618 -2.46565 16.495 21.985)" gradientUnits="userSpaceOnUse"><stop stop-color="#FF9937"/><stop offset=".895" stop-color="#FE6A2E"/></radialGradient><radialGradient id="b" cx="0" cy="0" r="1" gradientTransform="rotate(133.033 9.25 6.173) scale(21.9166 16.5053)" gradientUnits="userSpaceOnUse"><stop stop-color="#FF9937"/><stop offset=".895" stop-color="#FE6A2E"/></radialGradient></defs></svg>