<svg xmlns="http://www.w3.org/2000/svg" width="124" height="35" fill="none"><g clip-path="url(#a)"><path fill="#A0A09F" d="M32.312 19.69c.128 1.195 1.215 3.245 4.371 3.245 2.75 0 4.072-1.75 4.072-3.458 0-1.538-1.044-2.797-3.113-3.224l-1.492-.32c-.576-.107-.96-.427-.96-.94 0-.597.597-1.045 1.344-1.045 1.194 0 1.641.79 1.727 1.409l2.366-.534c-.127-1.132-1.13-3.032-4.115-3.032-2.26 0-3.923 1.559-3.923 3.437 0 1.473.917 2.69 2.943 3.138l1.386.32c.81.171 1.13.556 1.13 1.025 0 .555-.448 1.046-1.386 1.046-1.237 0-1.855-.768-1.92-1.6l-2.43.533Zm17.506 2.925h2.708a17.276 17.276 0 0 1-.107-1.9v-8.603h-2.836v6.105c0 1.217-.725 2.07-1.983 2.07-1.322 0-1.919-.938-1.919-2.113v-6.062h-2.835v6.639c0 2.284 1.45 4.141 3.987 4.141 1.108 0 2.324-.427 2.9-1.409 0 .427.042.918.085 1.132Zm8.463 4.055v-5.08c.512.704 1.578 1.28 3.028 1.28 2.964 0 4.947-2.347 4.947-5.528 0-3.117-1.77-5.465-4.84-5.465-1.578 0-2.75.704-3.22 1.516v-1.281h-2.75V26.67h2.835Zm5.181-9.307c0 1.879-1.15 2.968-2.6 2.968-1.45 0-2.623-1.11-2.623-2.968 0-1.857 1.173-2.946 2.622-2.946 1.45 0 2.602 1.089 2.602 2.946Zm4.4 2.391c0 1.644 1.364 3.16 3.603 3.16 1.556 0 2.558-.726 3.091-1.559 0 .406.043.982.107 1.26h2.601a11.774 11.774 0 0 1-.127-1.665v-5.167c0-2.113-1.237-3.992-4.563-3.992-2.815 0-4.329 1.815-4.5 3.459l2.517.533c.085-.917.767-1.707 2.004-1.707 1.194 0 1.77.619 1.77 1.366 0 .363-.192.662-.79.747l-2.58.384c-1.748.256-3.133 1.302-3.133 3.181Zm4.2 1.046c-.917 0-1.365-.598-1.365-1.217 0-.811.576-1.217 1.3-1.323l2.368-.363v.47c0 1.857-1.11 2.433-2.303 2.433Zm10.684 1.815v-1.281c.553.896 1.662 1.537 3.112 1.537 2.986 0 4.947-2.37 4.947-5.55 0-3.117-1.77-5.487-4.84-5.487-1.557 0-2.708.683-3.177 1.43V7.16h-2.793v15.456h2.75Zm5.223-5.273c0 1.921-1.151 2.988-2.601 2.988-1.429 0-2.622-1.088-2.622-2.988 0-1.921 1.193-2.967 2.622-2.967 1.45 0 2.601 1.046 2.601 2.967Zm4.441 2.412c0 1.644 1.365 3.16 3.604 3.16 1.556 0 2.559-.726 3.092-1.559 0 .406.043.982.106 1.26h2.602a11.768 11.768 0 0 1-.128-1.665v-5.167c0-2.113-1.237-3.992-4.563-3.992-2.815 0-4.328 1.815-4.499 3.459l2.516.533c.085-.917.768-1.707 2.004-1.707 1.194 0 1.77.619 1.77 1.366 0 .363-.192.662-.79.747l-2.579.384c-1.748.256-3.134 1.302-3.134 3.181Zm4.201 1.046c-.917 0-1.365-.598-1.365-1.217 0-.811.576-1.217 1.301-1.323l2.367-.363v.47c0 1.857-1.109 2.433-2.303 2.433Zm7.038-1.11c.127 1.195 1.215 3.245 4.371 3.245 2.75 0 4.072-1.75 4.072-3.458 0-1.538-1.045-2.797-3.113-3.224l-1.493-.32c-.575-.107-.959-.427-.959-.94 0-.597.597-1.045 1.343-1.045 1.195 0 1.642.79 1.728 1.409l2.366-.534c-.128-1.132-1.13-3.032-4.115-3.032-2.26 0-3.923 1.559-3.923 3.437 0 1.473.916 2.69 2.942 3.138l1.386.32c.811.171 1.13.556 1.13 1.025 0 .555-.447 1.046-1.386 1.046-1.236 0-1.854-.768-1.918-1.6l-2.431.533Zm12.75-3.522c.064-.96.874-2.071 2.345-2.071 1.621 0 2.303 1.025 2.346 2.07h-4.691Zm4.968 2.732c-.341.94-1.066 1.601-2.388 1.601-1.407 0-2.58-1.003-2.644-2.39h7.505c0-.044.043-.47.043-.876 0-3.373-1.94-5.444-5.181-5.444-2.687 0-5.16 2.178-5.16 5.53 0 3.543 2.537 5.614 5.416 5.614 2.58 0 4.243-1.516 4.776-3.33l-2.367-.705ZM13.597 28.979c-.61.768-1.848.347-1.863-.634l-.215-14.353h9.651c1.748 0 2.723 2.019 1.636 3.388l-9.21 11.599Z"/><path fill="url(#b)" fill-opacity=".2" d="M13.597 28.979c-.61.768-1.848.347-1.863-.634l-.215-14.353h9.651c1.748 0 2.723 2.019 1.636 3.388l-9.21 11.599Z"/><path fill="#9B9B9B" d="M9.672 5.884c.61-.769 1.848-.348 1.862.634l.094 14.353h-9.53c-1.748 0-2.723-2.02-1.636-3.388l9.21-11.6Z"/></g><defs><linearGradient id="b" x1="7.717" x2="11.628" y1="11.968" y2="19.331" gradientUnits="userSpaceOnUse"><stop/><stop offset="1" stop-opacity="0"/></linearGradient><clipPath id="a"><path fill="#fff" d="M0 5.441h124v24.117H0z"/></clipPath></defs></svg>