<svg xmlns="http://www.w3.org/2000/svg" width="33" height="33" fill="none"><path fill="url(#a)" fill-rule="evenodd" d="M19.453 6.5a3.635 3.635 0 0 1 2.45 6.33l-4.04 3.67h-.01l4.04 3.67c1.13 1.02 1.5 2.59.95 4.01a3.62 3.62 0 0 1-3.4 2.32h-5.89a3.63 3.63 0 0 1-3.4-2.32c-.55-1.42-.18-2.99.95-4.01l4.04-3.67h.01l-4.04-3.67a3.63 3.63 0 0 1 2.44-6.33h5.9Zm-4.77 5.23h3.64c.37 0 .68-.31.68-.68 0-.37-.3-.68-.68-.68h-3.64c-.37 0-.68.31-.68.68 0 .37.3.68.68.68Zm0 10.91h3.64c.37 0 .68-.31.68-.68 0-.37-.3-.68-.68-.68h-3.64c-.37 0-.68.31-.68.68 0 .37.3.68.68.68Z" clip-rule="evenodd"/><defs><radialGradient id="a" cx="0" cy="0" r="1" gradientTransform="matrix(-11.34002 17.1876 -11.92828 -7.87003 21.86 8.063)" gradientUnits="userSpaceOnUse"><stop stop-color="#FF9937"/><stop offset=".895" stop-color="#FE6A2E"/></radialGradient></defs></svg>