<svg xmlns="http://www.w3.org/2000/svg" width="124" height="35" fill="none"><g fill="#A0A09F" clip-path="url(#a)"><path d="M15.56 2C6.952 2 0 8.953 0 17.56c0 6.884 4.455 12.723 10.632 14.782.776.135 1.08-.338 1.08-.743 0-.37-.034-1.586-.034-2.902-3.915.709-4.928-.945-5.232-1.823-.168-.438-.945-1.822-1.586-2.194-.54-.303-1.316-1.012-.034-1.046 1.215-.034 2.093 1.114 2.397 1.587 1.417 2.362 3.645 1.687 4.522 1.282.135-1.012.54-1.688.979-2.093-3.476-.405-7.088-1.72-7.088-7.695 0-1.687.608-3.105 1.587-4.185-.17-.405-.71-1.991.168-4.117 0 0 1.317-.405 4.287 1.586a14.963 14.963 0 0 1 3.881-.54c1.316 0 2.633.169 3.881.54 2.97-2.025 4.287-1.586 4.287-1.586.843 2.126.303 3.746.168 4.117.98 1.08 1.587 2.464 1.587 4.185 0 5.974-3.645 7.29-7.122 7.695.574.473 1.047 1.418 1.047 2.87 0 2.092-.034 3.746-.034 4.286 0 .405.304.91 1.08.742A15.592 15.592 0 0 0 31.05 17.525C31.15 8.953 24.166 2 15.559 2Zm59.232 22.647c-.17 0-.608.101-1.08.101-1.486 0-1.992-.675-1.992-1.553V17.29h3.004c.169 0 .304-.135.304-.371V13.71a.302.302 0 0 0-.304-.303H71.72v-3.95c0-.134-.101-.235-.27-.235H67.4c-.169 0-.27.1-.27.236v4.084l-2.194.54a.324.324 0 0 0-.236.303v2.566c0 .202.135.37.304.37h2.092V23.5c0 4.59 3.207 5.063 5.4 5.063 1.013 0 2.194-.304 2.397-.405.101-.034.169-.169.169-.304v-2.835c.033-.203-.102-.338-.27-.371Zm44.618-4.118c0-3.409-1.384-3.847-2.835-3.712-1.114.067-2.025.64-2.025.64v6.616s.911.641 2.295.675c1.957.067 2.565-.641 2.565-4.219Zm4.59-.304c0 6.447-2.092 8.303-5.738 8.303-3.071 0-4.758-1.552-4.758-1.552s-.068.877-.169.978c-.068.101-.135.135-.27.135h-2.801c-.203 0-.372-.135-.372-.303l.034-20.926c0-.169.135-.304.304-.304h4.016c.169 0 .304.135.304.304l-.034 7.054s1.553-1.012 3.814-1.012h.034c2.295 0 5.636.843 5.636 7.323Zm-16.437-6.817h-3.948c-.203 0-.304.135-.304.371v10.226s-1.046.743-2.464.743c-1.417 0-1.822-.641-1.822-2.059v-8.944a.302.302 0 0 0-.304-.303h-4.017a.302.302 0 0 0-.303.303v9.62c0 4.15 2.329 5.163 5.501 5.163 2.633 0 4.759-1.451 4.759-1.451s.101.742.135.843c.034.102.169.17.304.17h2.531c.202 0 .304-.136.304-.305l.033-14.074a.444.444 0 0 0-.405-.303Zm-44.618 0H58.93c-.169 0-.304.168-.304.371v13.804c0 .371.236.506.574.506h3.611c.371 0 .473-.168.473-.506V13.712c0-.17-.17-.304-.338-.304Zm-1.958-6.38a2.579 2.579 0 0 0-2.598 2.6 2.579 2.579 0 0 0 2.598 2.598c1.418 0 2.566-1.147 2.566-2.598 0-1.452-1.148-2.6-2.566-2.6Zm31.051-.472h-3.982a.302.302 0 0 0-.304.304v7.695h-6.244V6.894a.302.302 0 0 0-.304-.304h-4.016a.302.302 0 0 0-.304.304v20.925c0 .169.169.304.304.304h4.016a.302.302 0 0 0 .304-.304v-8.977h6.244l-.034 8.944c0 .168.135.303.304.303h4.016a.302.302 0 0 0 .304-.303V6.86c0-.135-.135-.304-.304-.304Zm-35.54 9.282v10.8c0 .067-.033.202-.1.236 0 0-2.363 1.688-6.244 1.688-4.692 0-10.227-1.485-10.227-11.138 0-9.686 4.86-11.678 9.585-11.644 4.118 0 5.772.911 6.008 1.08.067.101.101.169.101.27l-.776 3.341c0 .17-.169.372-.371.304-.675-.202-1.688-.607-4.084-.607-2.768 0-5.738.776-5.738 7.02s2.835 6.953 4.86 6.953c1.722 0 2.363-.203 2.363-.203v-4.32h-2.768c-.202 0-.371-.135-.371-.304v-3.476c0-.169.135-.304.371-.304h7.054c.203-.034.338.135.338.304Z"/></g><defs><clipPath id="a"><path fill="#fff" d="M0 2h124v30.376H0z"/></clipPath></defs></svg>