<svg xmlns="http://www.w3.org/2000/svg" width="33" height="33" fill="none"><path fill="#292D32" fill-rule="evenodd" d="M10.96 12.034c.07-.01.14-.01.21 0a2.874 2.874 0 0 0 2.78-2.88 2.885 2.885 0 1 0-5.77 0c0 1.56 1.23 2.83 2.78 2.88Zm10.88 0c.07-.01.14-.01.21 0a2.89 2.89 0 0 0 2.79-2.88c0-1.6-1.3-2.89-2.89-2.89-1.6 0-2.89 1.3-2.89 2.89 0 1.56 1.23 2.83 2.78 2.88Zm-.67 7.77c1.45.19 3.02-.09 4.14-.84 1.57-1.05 1.57-2.76-.01-3.8-1.13-.75-2.7-1.03-4.18-.83.42.83.64 1.78.64 2.78a6.53 6.53 0 0 1-.59 2.69Zm-9.51.03c-.38-.83-.59-1.75-.59-2.72 0-1.01.22-1.96.63-2.8-1.42-.16-2.93.13-4 .85-1.58 1.05-1.58 2.76 0 3.81 1.08.71 2.55 1.01 3.96.86Zm4.98.3a1.13 1.13 0 0 0-.26 0 3.425 3.425 0 0 1-3.31-3.43c.01-1.9 1.54-3.44 3.45-3.44 1.9 0 3.44 1.54 3.44 3.44a3.434 3.434 0 0 1-3.32 3.43Zm-3.25 5.74c-1.51-1-1.51-2.66 0-3.67 1.73-1.15 4.55-1.15 6.26 0 1.51 1 1.51 2.66 0 3.67-1.72 1.15-4.54 1.15-6.26 0Z" clip-rule="evenodd"/><path fill="url(#a)" fill-rule="evenodd" d="M10.96 12.034c.07-.01.14-.01.21 0a2.874 2.874 0 0 0 2.78-2.88 2.885 2.885 0 1 0-5.77 0c0 1.56 1.23 2.83 2.78 2.88Zm10.88 0c.07-.01.14-.01.21 0a2.89 2.89 0 0 0 2.79-2.88c0-1.6-1.3-2.89-2.89-2.89-1.6 0-2.89 1.3-2.89 2.89 0 1.56 1.23 2.83 2.78 2.88Zm-.67 7.77c1.45.19 3.02-.09 4.14-.84 1.57-1.05 1.57-2.76-.01-3.8-1.13-.75-2.7-1.03-4.18-.83.42.83.64 1.78.64 2.78a6.53 6.53 0 0 1-.59 2.69Zm-9.51.03c-.38-.83-.59-1.75-.59-2.72 0-1.01.22-1.96.63-2.8-1.42-.16-2.93.13-4 .85-1.58 1.05-1.58 2.76 0 3.81 1.08.71 2.55 1.01 3.96.86Zm4.98.3a1.13 1.13 0 0 0-.26 0 3.425 3.425 0 0 1-3.31-3.43c.01-1.9 1.54-3.44 3.45-3.44 1.9 0 3.44 1.54 3.44 3.44a3.434 3.434 0 0 1-3.32 3.43Zm-3.25 5.74c-1.51-1-1.51-2.66 0-3.67 1.73-1.15 4.55-1.15 6.26 0 1.51 1 1.51 2.66 0 3.67-1.72 1.15-4.54 1.15-6.26 0Z" clip-rule="evenodd"/><defs><radialGradient id="a" cx="0" cy="0" r="1" gradientTransform="rotate(134.29 10.65 9.119) scale(24.5784 18.5479)" gradientUnits="userSpaceOnUse"><stop stop-color="#FF9937"/><stop offset=".895" stop-color="#FE6A2E"/></radialGradient></defs></svg>