<svg xmlns="http://www.w3.org/2000/svg" width="33" height="33" fill="none"><path fill="url(#a)" fill-rule="evenodd" d="M21.25 6.875v1.56c2.7.25 4.01 1.86 4.21 4.25.03.28-.21.53-.5.53H8.04c-.28 0-.52-.24-.5-.53.2-2.39 1.51-4 4.21-4.25v-1.56c0-.41.34-.75.75-.75s.75.34.75.75v1.5h6.5v-1.5c0-.41.34-.75.75-.75s.75.34.75.75ZM8.5 14.715h16c.55 0 1 .45 1 1v6.16c0 3-1.5 5-5 5h-8c-3.5 0-5-2-5-5v-6.16c0-.55.45-1 1-1Zm4.88 8.58c.12-.05.23-.12.33-.21.18-.19.29-.45.29-.71 0-.26-.11-.52-.29-.71-.1-.09-.21-.16-.33-.21a1 1 0 0 0-.76 0c-.12.05-.23.12-.33.21-.18.19-.29.45-.29.71 0 .26.11.52.29.71.1.09.21.16.33.21.12.05.25.08.38.08s.26-.03.38-.08Zm.33-3.71c.09-.1.16-.21.21-.33.05-.12.08-.25.08-.38s-.03-.26-.08-.38-.12-.23-.21-.33c-.1-.09-.21-.16-.33-.21a1 1 0 0 0-.76 0c-.12.05-.23.12-.33.21-.09.1-.16.21-.21.33-.05.12-.08.25-.08.38s.03.26.08.38.12.23.21.33c.1.09.21.16.33.21.12.05.25.08.38.08s.26-.03.38-.08.23-.12.33-.21Zm3.17.21c.12-.05.23-.12.33-.21.18-.19.29-.45.29-.71 0-.26-.11-.52-.29-.71-.1-.09-.21-.16-.33-.21a.916.916 0 0 0-.76 0c-.12.05-.23.12-.33.21-.18.19-.29.45-.29.71 0 .26.11.52.29.71.1.09.21.16.33.21.12.05.25.08.38.08s.26-.03.38-.08Z" clip-rule="evenodd"/><defs><radialGradient id="a" cx="0" cy="0" r="1" gradientTransform="rotate(130.941 10.139 9.306) scale(23.6063 17.6413)" gradientUnits="userSpaceOnUse"><stop stop-color="#FF9937"/><stop offset=".895" stop-color="#FE6A2E"/></radialGradient></defs></svg>