<svg xmlns="http://www.w3.org/2000/svg" width="124" height="35" fill="none"><path fill="#A0A09F" d="M46.599 22.39V12.5a.395.395 0 0 1 .14-.301c.1-.086.228-.13.36-.126h2.782a3.276 3.276 0 0 1 2.264.765c.567.51.85 1.314.85 2.413v.133c0 1.098-.288 1.905-.865 2.42a3.345 3.345 0 0 1-2.301.77h-1.986v3.815a.357.357 0 0 1-.181.324.854.854 0 0 1-.87 0 .36.36 0 0 1-.193-.324Zm1.235-4.841h1.996a1.913 1.913 0 0 0 1.437-.524c.369-.435.55-.998.506-1.566v-.18a2.156 2.156 0 0 0-.506-1.566 1.911 1.911 0 0 0-1.437-.52h-1.985l-.011 4.356Zm9.483 2.161v-4.43c0-1.105.286-1.916.86-2.434a3.842 3.842 0 0 1 4.614 0c.578.517.865 1.33.868 2.435v4.431c0 1.108-.29 1.92-.868 2.435a3.82 3.82 0 0 1-4.621 0c-.57-.519-.853-1.323-.853-2.436Zm1.239 0c0 1.394.639 2.09 1.924 2.09a1.9 1.9 0 0 0 1.436-.52c.368-.437.55-1 .507-1.57v-4.43a2.158 2.158 0 0 0-.509-1.566 1.908 1.908 0 0 0-1.436-.52c-1.285 0-1.924.696-1.924 2.085l.002 4.432Zm9.475 1.606a.76.76 0 0 1 .169-.456.48.48 0 0 1 .359-.223c.13.023.249.09.338.187.135.122.28.258.427.407.2.186.438.327.697.413.344.13.71.19 1.077.182a2.241 2.241 0 0 0 1.5-.464 1.679 1.679 0 0 0 .547-1.358 1.799 1.799 0 0 0-.498-1.318 3.328 3.328 0 0 0-1.207-.77 34.314 34.314 0 0 1-1.436-.567 3.054 3.054 0 0 1-1.214-.927 2.512 2.512 0 0 1-.498-1.612c-.01-.466.09-.928.294-1.347.174-.357.447-.655.787-.86a3.93 3.93 0 0 1 1.023-.424c.37-.09.75-.135 1.132-.133a5.742 5.742 0 0 1 1.745.263c.553.18.833.424.833.718a.846.846 0 0 1-.147.441.438.438 0 0 1-.384.238 4.816 4.816 0 0 1-.66-.263 3.262 3.262 0 0 0-1.369-.28 2.592 2.592 0 0 0-1.436.36 1.3 1.3 0 0 0-.553 1.163 1.35 1.35 0 0 0 .485 1.106c.36.294.771.52 1.213.667.478.17.951.36 1.436.575a3.04 3.04 0 0 1 1.2 1.038 3.1 3.1 0 0 1 .498 1.817c0 1.012-.294 1.774-.883 2.29-.656.54-1.49.815-2.338.773a4.18 4.18 0 0 1-2.212-.55c-.623-.368-.925-.73-.925-1.086Zm10.036-8.697a.629.629 0 0 1 .119-.381.356.356 0 0 1 .323-.165h5.989a.36.36 0 0 1 .323.165c.078.111.12.245.119.38a.691.691 0 0 1-.119.403.358.358 0 0 1-.323.172h-2.352v9.197a.358.358 0 0 1-.181.323.854.854 0 0 1-.87 0 .356.356 0 0 1-.18-.323v-9.197h-2.388a.363.363 0 0 1-.324-.165.684.684 0 0 1-.136-.41Zm11.067 9.771v-9.696a.539.539 0 0 1 .635-.618c.391 0 .718.259.987.78l2.31 4.43 2.326-4.43c.284-.521.61-.78.984-.78a.534.534 0 0 1 .613.604v9.695a.359.359 0 0 1-.181.323.854.854 0 0 1-.869 0 .36.36 0 0 1-.181-.323v-7.713l-2.223 4.18a.534.534 0 0 1-.484.359.517.517 0 0 1-.457-.36l-2.222-4.25v7.799a.357.357 0 0 1-.18.323.755.755 0 0 1-.417.136.765.765 0 0 1-.434-.118.36.36 0 0 1-.207-.341Zm12.081-.068a.347.347 0 0 1 .029-.12l3.012-9.695c.087-.283.334-.427.751-.427.416 0 .664.144.75.428l3.019 9.742a.123.123 0 0 0 0 .053.079.079 0 0 1 0 .043.417.417 0 0 1-.241.36.967.967 0 0 1-.538.143.406.406 0 0 1-.442-.276l-.646-2.155h-3.856l-.645 2.153a.411.411 0 0 1-.449.283.92.92 0 0 1-.498-.147.43.43 0 0 1-.18-.157.43.43 0 0 1-.066-.229Zm2.136-2.949h3.293l-1.648-5.501-1.645 5.501Zm9.696 3.017V12.5c0-.283.205-.427.617-.427a.8.8 0 0 1 .525.181c.175.171.316.373.416.596l3.668 7.182v-7.54a.356.356 0 0 1 .181-.316.914.914 0 0 1 .869 0 .359.359 0 0 1 .183.317v9.897a.352.352 0 0 1-.047.187.356.356 0 0 1-.136.136.771.771 0 0 1-.435.119.893.893 0 0 1-.779-.56l-3.827-7.401v7.519a.362.362 0 0 1-.182.323.85.85 0 0 1-.869 0 .357.357 0 0 1-.184-.323ZM31.409 8.982a.199.199 0 0 0-.09.265.59.59 0 0 1-.075.643.198.198 0 0 0 .306.253.988.988 0 0 0 .123-1.073.198.198 0 0 0-.264-.088Z"/><path fill="#A0A09F" d="M23.794.547c-9.378-1.2-17.956 5.415-19.16 14.78-1.202 9.364 5.422 17.924 14.8 19.126 9.378 1.2 17.957-5.414 19.159-14.776 1.202-9.361-5.422-17.927-14.8-19.13Zm3.524 10.663a1.22 1.22 0 0 0-.845.357l-6.352 6.34-1.355-1.353c6.258-6.232 7.387-6.292 8.553-5.344Zm-6.939 6.924 6.334-6.325a.884.884 0 0 1 1.507.651.881.881 0 0 1-.3.634l-6.703 5.878-.838-.838Zm.471.987-1.569.338a.088.088 0 0 1-.096-.044.087.087 0 0 1 .015-.105l.92-.918.73.729Zm-4-.654 1.673-1.67 1.254 1.252-2.824.607a.112.112 0 0 1-.134-.126.113.113 0 0 1 .031-.063Zm-5.2 8.632a.109.109 0 0 1-.064-.185l1.35-1.348 1.742 1.74-3.028-.207Zm3.46-1.791a.326.326 0 0 0-.168.362l.29 1.234a.18.18 0 0 1-.302.167l-1.751-1.748 5.365-5.357 2.597-.556 1.247 1.244c-1.793 1.566-4.24 3.131-7.278 4.652v.002Zm7.53-4.883-1.198-1.194 6.704-5.879c.063-.054.119-.115.169-.181-.212 1.919-2.895 4.624-5.674 7.253l-.002.001Zm5.215-9.204a2.594 2.594 0 0 1 1.67-4.416 2.603 2.603 0 0 1 1.838.593l-2.301 2.297a.168.168 0 0 0-.037.186c.008.021.021.04.037.056l1.779 1.776a2.595 2.595 0 0 1-2.982-.493l-.004.001Zm3.677 0a2.538 2.538 0 0 1-.385.315l-1.723-1.721L31.61 7.63a2.593 2.593 0 0 1-.08 3.589l.002.001Z"/></svg>