<svg xmlns="http://www.w3.org/2000/svg" width="23" height="27" fill="none"><path fill="url(#a)" fill-rule="evenodd" d="M13.808.262c3.092.677 5.759 2.734 7.139 5.52 2.68 5.388.093 11.24-4.02 14.014v.928c.012.359.026 1.022-.479 1.54-.371.371-.915.57-1.632.57H8.01c-.544 0-1.234-.053-1.699-.53-.45-.465-.438-1.035-.424-1.407v-1.101C2.78 17.712.724 14.116.724 10.678a10.58 10.58 0 0 1 3.994-8.32C7.252.315 10.57-.454 13.808.262Zm-1.566 14.969 1.42-2.469c.332-.57.358-1.194.066-1.698-.292-.491-.836-.783-1.5-.783h-1.114l1.128-1.964a1.001 1.001 0 0 0-.372-1.354 1.001 1.001 0 0 0-1.353.372l-1.42 2.468c-.332.584-.358 1.195-.066 1.699.292.49.836.783 1.5.783h1.114l-1.128 1.964a1.001 1.001 0 0 0 .371 1.353.91.91 0 0 0 .491.133c.345 0 .677-.186.863-.504Zm3.211 11.266c.08.026.173.04.253.04a.96.96 0 0 0 .902-.677.922.922 0 0 0-.637-1.142 16.77 16.77 0 0 0-9.156 0 .916.916 0 0 0-.637 1.142c.132.49.65.77 1.14.637a14.864 14.864 0 0 1 8.135 0Z" clip-rule="evenodd"/><defs><radialGradient id="a" cx="0" cy="0" r="1" gradientTransform="rotate(128.777 9.525 5.84) scale(29.2522 21.5629)" gradientUnits="userSpaceOnUse"><stop stop-color="#FF9937"/><stop offset=".895" stop-color="#FE6A2E"/></radialGradient></defs></svg>