<svg xmlns="http://www.w3.org/2000/svg" width="24" height="25" fill="none"><path fill="url(#a)" d="M17.037 0H6.975C2.605 0 0 2.605 0 6.975v10.05c0 4.382 2.605 6.987 6.975 6.987h10.05c4.37 0 6.975-2.605 6.975-6.976V6.976C24.012 2.605 21.407 0 17.037 0Zm.828 11.442c0 .468-.372.84-.84.84a.835.835 0 0 1-.84-.84v-.216l-3.267 3.265a.825.825 0 0 1-.672.24.798.798 0 0 1-.612-.372l-1.225-1.825-2.857 2.858a.807.807 0 0 1-.589.24.837.837 0 0 1-.588-.24.848.848 0 0 1 0-1.189l3.578-3.578c.18-.18.42-.264.672-.24.252.024.48.156.613.372l1.224 1.825 2.534-2.533h-.217a.835.835 0 0 1-.84-.84c0-.469.372-.84.84-.84h2.233c.108 0 .217.023.325.06a.85.85 0 0 1 .456.455.78.78 0 0 1 .06.325v2.233h.012Z"/><defs><radialGradient id="a" cx="0" cy="0" r="1" gradientTransform="rotate(134.986 10.486 5.444) scale(29.1754 22.0238)" gradientUnits="userSpaceOnUse"><stop stop-color="#FF9937"/><stop offset=".895" stop-color="#FE6A2E"/></radialGradient></defs></svg>