<svg xmlns="http://www.w3.org/2000/svg" width="18" height="18" fill="none"><path fill="#FE6A2E" d="m6.981 12.604-.75 2.627-.75-2.627A4.153 4.153 0 0 0 2.627 9.75L0 9l2.627-.75A4.154 4.154 0 0 0 5.48 5.397l.752-2.628.75 2.627A4.154 4.154 0 0 0 9.834 8.25L12.46 9l-2.627.75a4.154 4.154 0 0 0-2.852 2.853Zm7.796-6.636-.238.955-.24-.955A3.116 3.116 0 0 0 12.033 3.7l-.956-.24.956-.239A3.116 3.116 0 0 0 14.3.955L14.54 0l.239.955a3.116 3.116 0 0 0 2.267 2.267l.955.24-.955.239a3.115 3.115 0 0 0-2.268 2.267Zm-1.26 10.94L13.155 18l-.364-1.092a2.077 2.077 0 0 0-1.313-1.314l-1.092-.363 1.092-.364a2.077 2.077 0 0 0 1.313-1.314l.364-1.092.364 1.092a2.077 2.077 0 0 0 1.313 1.314l1.092.364-1.092.364a2.076 2.076 0 0 0-1.313 1.313Z"/></svg>