<svg xmlns="http://www.w3.org/2000/svg" width="33" height="33" fill="none"><path fill="url(#a)" fill-rule="evenodd" d="M26.49 15.274v-4c0-3.19-1.6-4.79-4.79-4.79h-6.4c-1.99 0-3.35.62-4.1 1.86-.18.3.06.65.41.65l6.09-.01c4 0 6.29 2.29 6.29 6.29l-.01 3.7c0 .35.35.59.65.41 1.24-.75 1.86-2.11 1.86-4.11Zm-15.19-4.79h6.4c3.19 0 4.79 1.6 4.79 4.79v4c0 .26-.01.51-.04.75-.23 2.7-1.82 4.04-4.75 4.04h-.4c-.25 0-.49.12-.64.32l-1.2 1.6c-.53.71-1.39.71-1.92 0l-1.2-1.6a.924.924 0 0 0-.64-.32h-.4c-3.19 0-4.79-.79-4.79-4.79v-4c0-2.93 1.35-4.52 4.04-4.75.24-.03.49-.04.75-.04Zm-1.29 7c0 .55.44 1 1 1 .55 0 1-.45 1-1s-.45-1-1-1-1 .45-1 1Zm3.49 0c0 .55.44 1 1 1s1-.45 1-1-.45-1-1-1-1 .45-1 1Zm3.5 0c0 .55.44 1 1 1 .55 0 1-.45 1-1s-.45-1-1-1-1 .45-1 1Z" clip-rule="evenodd"/><defs><radialGradient id="a" cx="0" cy="0" r="1" gradientTransform="matrix(-17.17036 17.21537 -12.99543 -12.96145 24.617 8.049)" gradientUnits="userSpaceOnUse"><stop stop-color="#FF9937"/><stop offset=".895" stop-color="#FE6A2E"/></radialGradient></defs></svg>