<svg xmlns="http://www.w3.org/2000/svg" width="124" height="35" fill="none"><g clip-path="url(#a)"><g fill="#A0A09F" clip-path="url(#b)"><path d="M35.148 14.986c-.876-.59-3.178-.841-4.85-.39-.09-1.667-.95-3.072-2.523-4.297l-.581-.39-.388.585c-.763 1.157-1.084 2.7-.97 4.102.09.864.39 1.834.97 2.539-2.178 1.263-4.186.976-13.076.976H.003c-.04 2.008.283 5.87 2.739 9.013.271.348.568.683.891 1.007 1.997 2 5.013 3.465 9.524 3.47 6.882.006 12.777-3.715 16.364-12.708 1.18.019 4.296.211 5.82-2.735.038-.05.388-.78.388-.78l-.58-.391ZM8.961 13.151h-3.86v3.86h3.86v-3.86Zm4.987 0h-3.86v3.86h3.86v-3.86Zm4.986 0h-3.86v3.86h3.86v-3.86Zm4.987 0h-3.86v3.86h3.86v-3.86Zm-19.946 0H.115v3.86h3.86v-3.86ZM8.96 8.276H5.1v3.86h3.86v-3.86Zm4.987 0h-3.86v3.86h3.86v-3.86Zm4.986 0h-3.86v3.86h3.86v-3.86Zm0-4.876h-3.86v3.86h3.86V3.4ZM123.76 25.677c0 1.006-.79 1.796-1.817 1.796-1.028 0-1.829-.79-1.829-1.796s.811-1.775 1.829-1.775c1.017 0 1.817.79 1.817 1.775Zm-3.191 0c0 .79.584 1.417 1.385 1.417s1.353-.627 1.353-1.406c0-.779-.574-1.429-1.363-1.429s-1.375.639-1.375 1.418Zm1.093.93h-.411v-1.774c.162-.032.39-.054.681-.054.336 0 .487.054.617.13a.49.49 0 0 1 .173.39c0 .195-.151.346-.367.41v.023c.172.064.27.194.324.432.054.27.086.379.13.444h-.443c-.054-.065-.087-.227-.141-.433-.032-.195-.141-.281-.368-.281h-.195v.714Zm.01-1.006h.195c.227 0 .411-.075.411-.259 0-.162-.118-.271-.379-.271a.917.917 0 0 0-.227.022v.508ZM54.04 7.718a1.273 1.273 0 0 0-.926-.375c-.366 0-.68.126-.925.375s-.366.568-.366.947v6.344c-1.259-1.04-2.712-1.566-4.365-1.566-1.92 0-3.563.694-4.925 2.087-1.36 1.387-2.037 3.066-2.037 5.035 0 1.97.68 3.643 2.037 5.036 1.361 1.387 3 2.086 4.925 2.086 1.926 0 3.546-.694 4.925-2.086 1.361-1.374 2.037-3.052 2.037-5.036v-11.9c0-.38-.125-.698-.38-.947Zm-2.56 14.563v.01a4.516 4.516 0 0 1-.93 1.416 4.447 4.447 0 0 1-1.384.966 4.098 4.098 0 0 1-1.703.356 4.161 4.161 0 0 1-1.717-.356 4.38 4.38 0 0 1-1.38-.961 4.579 4.579 0 0 1-.925-1.416 4.45 4.45 0 0 1-.342-1.73 4.53 4.53 0 0 1 1.268-3.146 4.443 4.443 0 0 1 1.379-.962 4.131 4.131 0 0 1 1.717-.357c.615 0 1.171.118 1.703.357.533.239.991.558 1.384.966.394.408.704.881.93 1.416.228.539.343 1.111.343 1.72 0 .61-.115 1.187-.342 1.721Zm60.078-4.449a6.914 6.914 0 0 0-1.528-2.293l-.009-.005c-1.375-1.388-3.018-2.086-4.925-2.086-1.906 0-3.564.694-4.925 2.086-1.362 1.388-2.037 3.067-2.037 5.036 0 1.969.68 3.643 2.037 5.035 1.361 1.388 3 2.087 4.925 2.087 1.749 0 3.263-.577 4.55-1.73.249-.263.375-.581.375-.952s-.12-.699-.366-.948a1.249 1.249 0 0 0-.925-.375c-.324.01-.611.118-.856.333-.389.338-.81.596-1.268.765a4.316 4.316 0 0 1-1.504.253c-.482 0-.945-.075-1.384-.23a4.458 4.458 0 0 1-1.218-.642 4.32 4.32 0 0 1-.963-.994 4.319 4.319 0 0 1-.62-1.28h9.846c.365 0 .67-.126.926-.375.255-.248.379-.567.379-.947a7.29 7.29 0 0 0-.509-2.738h-.001Zm-10.651 1.416c.134-.465.338-.891.611-1.28a4.46 4.46 0 0 1 .968-.994 4.534 4.534 0 0 1 1.231-.642 4.19 4.19 0 0 1 1.379-.23 4.374 4.374 0 0 1 2.592.872c.371.277.694.604.967.994.278.385.487.811.63 1.28h-8.378Zm22.751-4.909a2.436 2.436 0 0 0-.875-.54 5.056 5.056 0 0 0-1.157-.272 9.622 9.622 0 0 0-1.176-.075c-.829 0-1.606.136-2.337.408a7.094 7.094 0 0 0-2.028 1.168v-.253c0-.366-.125-.675-.38-.933a1.233 1.233 0 0 0-.911-.39c-.356 0-.672.132-.926.39-.255.258-.38.572-.38.933V26.37c0 .366.125.675.38.933.254.258.56.389.926.389s.661-.131.911-.389c.255-.258.38-.572.38-.933v-5.8a4.503 4.503 0 0 1 1.273-3.16 4.353 4.353 0 0 1 1.384-.952 4.17 4.17 0 0 1 1.704-.352c.607 0 1.18.108 1.703.319.208.094.389.14.547.14a1.245 1.245 0 0 0 .921-.388c.116-.122.208-.263.277-.427.07-.16.107-.333.107-.52 0-.366-.116-.661-.347-.891h.004Zm-54.352 3.498a7.01 7.01 0 0 0-1.523-2.302c-1.374-1.388-3.017-2.087-4.925-2.087-1.907 0-3.564.694-4.925 2.087-1.36 1.387-2.036 3.066-2.036 5.035 0 1.97.68 3.643 2.036 5.036 1.361 1.387 3 2.086 4.925 2.086 1.926 0 3.546-.694 4.925-2.086 1.361-1.374 2.037-3.053 2.037-5.036a7.539 7.539 0 0 0-.513-2.733h-.001Zm-2.425 4.444v.01a4.517 4.517 0 0 1-.93 1.416 4.447 4.447 0 0 1-1.385.966 4.084 4.084 0 0 1-1.703.356 4.163 4.163 0 0 1-1.717-.356 4.38 4.38 0 0 1-1.38-.961 4.578 4.578 0 0 1-.925-1.416 4.45 4.45 0 0 1-.342-1.73 4.53 4.53 0 0 1 1.268-3.146 4.441 4.441 0 0 1 1.379-.962 4.131 4.131 0 0 1 1.717-.356c.615 0 1.171.117 1.703.356.533.24.991.558 1.384.966.394.408.704.881.93 1.416.228.539.343 1.111.343 1.72a4.37 4.37 0 0 1-.342 1.721Zm30.271-7.511a1.26 1.26 0 0 0-.106-.506 1.473 1.473 0 0 0-.278-.427 1.212 1.212 0 0 0-.412-.286 1.322 1.322 0 0 0-.508-.103c-.26 0-.491.066-.695.202l-7.434 4.947V8.675a1.29 1.29 0 0 0-.379-.947 1.234 1.234 0 0 0-.912-.39c-.356 0-.67.132-.926.39-.254.257-.38.572-.38.947v17.676c0 .366.126.68.38.943.255.262.56.394.926.394s.662-.131.912-.394c.254-.262.38-.577.38-.942v-4.59l1.518-1.018 5.744 6.597c.232.23.523.342.87.342a1.25 1.25 0 0 0 .921-.389 1.407 1.407 0 0 0 .384-.933c0-.347-.12-.657-.361-.928l-5.347-6.156 5.208-3.46c.333-.23.495-.582.495-1.056v.01-.001Zm-22.009 2.64a4.381 4.381 0 0 1 1.394-.952 4.172 4.172 0 0 1 1.703-.352c.546 0 1.051.094 1.519.281a4.86 4.86 0 0 1 1.328.825c.25.201.532.305.847.305.375 0 .68-.127.926-.38.245-.254.365-.573.365-.952 0-.38-.148-.732-.449-1.003-1.277-1.154-2.79-1.73-4.536-1.73-1.921 0-3.564.693-4.925 2.085-1.361 1.388-2.036 3.067-2.036 5.036 0 1.969.68 3.643 2.036 5.036 1.361 1.387 3 2.086 4.925 2.086 1.74 0 3.254-.576 4.536-1.73a1.36 1.36 0 0 0 .413-.98c0-.375-.121-.699-.366-.947a1.25 1.25 0 0 0-.925-.375c-.315.01-.589.103-.82.28a4.449 4.449 0 0 1-1.319.82 4.091 4.091 0 0 1-1.518.273 4.17 4.17 0 0 1-1.704-.352 4.41 4.41 0 0 1-2.333-2.367 4.487 4.487 0 0 1-.343-1.744c0-.62.116-1.2.343-1.745a4.398 4.398 0 0 1 .94-1.415v-.005.002Z"/></g></g><defs><clipPath id="a"><path fill="#fff" d="M0 0h124v35H0z"/></clipPath><clipPath id="b"><path fill="#fff" d="M0 3.4h124v28.2H0z"/></clipPath></defs></svg>