<svg xmlns="http://www.w3.org/2000/svg" width="124" height="35" fill="none"><g clip-path="url(#a)"><path fill="#A0A09F" fill-rule="evenodd" d="M28.302 29.81 14.152 5.199 0 29.809h28.302Zm14.274-1.12L54.402 6.317h-5.115l-8.158 16.247L32.97 6.318h-5.116L39.68 28.689h2.895ZM123.17 6.317v22.371h-4.235V6.318h4.235ZM99.598 20.339c0-1.743.364-3.277 1.092-4.6a7.577 7.577 0 0 1 3.044-3.057c1.301-.714 2.823-1.07 4.566-1.07 1.544 0 2.933.335 4.168 1.008 1.235.672 2.217 1.67 2.945 2.993.727 1.323 1.103 2.94 1.125 4.852v.977h-12.473c.088 1.386.496 2.479 1.224 3.277.75.777 1.754 1.166 3.011 1.166.793 0 1.522-.21 2.183-.63a3.932 3.932 0 0 0 1.489-1.702l4.334.315c-.529 1.576-1.522 2.836-2.977 3.782-1.457.945-3.132 1.417-5.029 1.417-1.743 0-3.265-.357-4.566-1.07a7.577 7.577 0 0 1-3.044-3.057c-.728-1.324-1.092-2.857-1.092-4.6Zm12.572-1.575c-.154-1.366-.584-2.363-1.29-2.994-.706-.65-1.566-.976-2.58-.976-1.17 0-2.118.346-2.846 1.04-.728.693-1.18 1.67-1.356 2.93h8.072ZM92.453 15.77c.706.568 1.146 1.355 1.323 2.364l4.367-.221c-.155-1.281-.606-2.395-1.356-3.34-.75-.945-1.72-1.67-2.912-2.174-1.169-.525-2.459-.788-3.87-.788-1.743 0-3.265.357-4.567 1.071a7.574 7.574 0 0 0-3.043 3.057c-.728 1.323-1.092 2.857-1.092 4.6 0 1.744.364 3.277 1.092 4.6a7.574 7.574 0 0 0 3.043 3.057c1.302.714 2.824 1.071 4.566 1.071 1.456 0 2.78-.262 3.97-.787 1.192-.547 2.162-1.313 2.912-2.3.75-.988 1.202-2.143 1.356-3.467l-4.4-.189c-.154 1.114-.585 1.975-1.29 2.584-.706.588-1.556.882-2.548.882-1.367 0-2.426-.472-3.176-1.418-.75-.945-1.124-2.29-1.124-4.033 0-1.743.374-3.088 1.124-4.033.75-.945 1.809-1.418 3.176-1.418.949 0 1.764.294 2.449.882ZM70.97 11.99h3.941l.114 3.214c.28-.91.668-1.617 1.167-2.12.722-.73 1.73-1.095 3.02-1.095h1.61v3.44H79.18c-.92 0-1.675.126-2.266.376-.57.25-1.007.646-1.313 1.188-.285.543-.427 1.23-.427 2.065v9.632H70.97v-16.7Zm-18.178 3.75c-.727 1.323-1.092 2.857-1.092 4.6 0 1.744.364 3.277 1.092 4.6a7.574 7.574 0 0 0 3.044 3.057c1.302.714 2.823 1.071 4.566 1.071 1.896 0 3.573-.472 5.029-1.418 1.456-.945 2.448-2.205 2.977-3.78l-4.334-.316a3.93 3.93 0 0 1-1.488 1.702c-.662.42-1.39.63-2.184.63-1.257 0-2.26-.389-3.01-1.166-.729-.798-1.137-1.89-1.225-3.277H68.64v-.977c-.022-1.911-.397-3.529-1.125-4.852-.728-1.323-1.709-2.321-2.944-2.993-1.235-.673-2.625-1.009-4.17-1.009-1.742 0-3.264.357-4.565 1.071a7.574 7.574 0 0 0-3.044 3.057Zm10.19.031c.706.63 1.136 1.628 1.29 2.994H56.2c.177-1.26.629-2.237 1.357-2.93.727-.694 1.676-1.04 2.845-1.04 1.014 0 1.875.325 2.58.976Z" clip-rule="evenodd"/></g><defs><clipPath id="a"><path fill="#fff" d="M0 5.179h124v24.643H0z"/></clipPath></defs></svg>